<svg width="29" height="22" viewBox="0 0 29 22" fill="none" xmlns="http://www.w3.org/2000/svg">
<g clip-path="url(#clip0_325_31)">
<path d="M17.1364 0H1.31818C0.59017 0 0 0.703552 0 1.57143C0 2.4393 0.59017 3.14286 1.31818 3.14286H17.1364C17.8644 3.14286 18.4545 2.4393 18.4545 1.57143C18.4545 0.703552 17.8644 0 17.1364 0Z" fill="white"/>
<path d="M27.6817 0H22.409C21.681 0 21.0908 0.703552 21.0908 1.57143C21.0908 2.4393 21.681 3.14286 22.409 3.14286H27.6817C28.4097 3.14286 28.9999 2.4393 28.9999 1.57143C28.9999 0.703552 28.4097 0 27.6817 0Z" fill="white"/>
<path d="M11.8636 9.42847H27.6818C28.4098 9.42847 29 10.132 29 10.9999C29 11.8678 28.4098 12.5713 27.6818 12.5713H11.8636C11.1356 12.5713 10.5455 11.8678 10.5455 10.9999C10.5455 10.132 11.1356 9.42847 11.8636 9.42847Z" fill="white"/>
<path d="M1.31827 9.42847H6.591C7.31901 9.42847 7.90918 10.132 7.90918 10.9999C7.90918 11.8678 7.31901 12.5713 6.591 12.5713H1.31827C0.590259 12.5713 8.86917e-05 11.8678 8.86917e-05 10.9999C8.86917e-05 10.132 0.590259 9.42847 1.31827 9.42847Z" fill="white"/>
<path d="M17.1364 18.8572H1.31818C0.59017 18.8572 0 19.5607 0 20.4286C0 21.2965 0.59017 22 1.31818 22H17.1364C17.8644 22 18.4545 21.2965 18.4545 20.4286C18.4545 19.5607 17.8644 18.8572 17.1364 18.8572Z" fill="white"/>
<path d="M27.6817 18.8572H22.409C21.681 18.8572 21.0908 19.5607 21.0908 20.4286C21.0908 21.2965 21.681 22 22.409 22H27.6817C28.4097 22 28.9999 21.2965 28.9999 20.4286C28.9999 19.5607 28.4097 18.8572 27.6817 18.8572Z" fill="white"/>
</g>
<defs>
<clipPath id="clip0_325_31">
<rect width="29" height="22" fill="white"/>
</clipPath>
</defs>
</svg>
