<svg width="38" height="38" viewBox="0 0 38 38" fill="none" xmlns="http://www.w3.org/2000/svg">
<path d="M34.4375 8.3125V29.6875C34.4375 30.3174 34.1873 30.9215 33.7419 31.3669C33.2965 31.8123 32.6924 32.0625 32.0625 32.0625H21.375C21.0601 32.0625 20.758 31.9374 20.5353 31.7147C20.3126 31.492 20.1875 31.1899 20.1875 30.875C20.1875 30.5601 20.3126 30.258 20.5353 30.0353C20.758 29.8126 21.0601 29.6875 21.375 29.6875H32.0625V8.3125H5.9375V14.25C5.9375 14.5649 5.81239 14.867 5.58969 15.0897C5.36699 15.3124 5.06494 15.4375 4.75 15.4375C4.43506 15.4375 4.13301 15.3124 3.91031 15.0897C3.68761 14.867 3.5625 14.5649 3.5625 14.25V8.3125C3.5625 7.68261 3.81272 7.07852 4.25812 6.63312C4.70352 6.18772 5.30761 5.9375 5.9375 5.9375H32.0625C32.6924 5.9375 33.2965 6.18772 33.7419 6.63312C34.1873 7.07852 34.4375 7.68261 34.4375 8.3125ZM4.75 27.3125C4.43506 27.3125 4.13301 27.4376 3.91031 27.6603C3.68761 27.883 3.5625 28.1851 3.5625 28.5C3.5625 28.8149 3.68761 29.117 3.91031 29.3397C4.13301 29.5624 4.43506 29.6875 4.75 29.6875C5.06494 29.6875 5.36699 29.8126 5.58969 30.0353C5.81239 30.258 5.9375 30.5601 5.9375 30.875C5.9375 31.1899 6.06261 31.492 6.28531 31.7147C6.50801 31.9374 6.81006 32.0625 7.125 32.0625C7.43994 32.0625 7.74199 31.9374 7.96469 31.7147C8.18739 31.492 8.3125 31.1899 8.3125 30.875C8.30859 29.9314 7.932 29.0275 7.26475 28.3602C6.5975 27.693 5.69363 27.3164 4.75 27.3125ZM4.75 22.5625C4.43506 22.5625 4.13301 22.6876 3.91031 22.9103C3.68761 23.133 3.5625 23.4351 3.5625 23.75C3.5625 24.0649 3.68761 24.367 3.91031 24.5897C4.13301 24.8124 4.43506 24.9375 4.75 24.9375C6.32472 24.9375 7.83495 25.5631 8.94845 26.6766C10.0619 27.7901 10.6875 29.3003 10.6875 30.875C10.6875 31.1899 10.8126 31.492 11.0353 31.7147C11.258 31.9374 11.5601 32.0625 11.875 32.0625C12.1899 32.0625 12.492 31.9374 12.7147 31.7147C12.9374 31.492 13.0625 31.1899 13.0625 30.875C13.0625 28.6704 12.1867 26.5561 10.6278 24.9972C9.06893 23.4383 6.95461 22.5625 4.75 22.5625ZM4.75 17.8125C4.43506 17.8125 4.13301 17.9376 3.91031 18.1603C3.68761 18.383 3.5625 18.6851 3.5625 19C3.5625 19.3149 3.68761 19.617 3.91031 19.8397C4.13301 20.0624 4.43506 20.1875 4.75 20.1875C7.5833 20.1914 10.2994 21.3187 12.3029 23.3221C14.3063 25.3256 15.4336 28.0417 15.4375 30.875C15.4375 31.1899 15.5626 31.492 15.7853 31.7147C16.008 31.9374 16.3101 32.0625 16.625 32.0625C16.9399 32.0625 17.242 31.9374 17.4647 31.7147C17.6874 31.492 17.8125 31.1899 17.8125 30.875C17.8086 27.4118 16.4311 24.0916 13.9822 21.6428C11.5334 19.1939 8.21318 17.8164 4.75 17.8125Z" fill="black"/>
</svg>
