<svg width="256" height="256" viewBox="0 0 256 256" fill="none" xmlns="http://www.w3.org/2000/svg">
<path d="M232 56V200C232 204.243 230.314 208.313 227.314 211.314C224.313 214.314 220.243 216 216 216H144C141.878 216 139.843 215.157 138.343 213.657C136.843 212.157 136 210.122 136 208C136 205.878 136.843 203.843 138.343 202.343C139.843 200.843 141.878 200 144 200H216V56H40V96C40 98.1217 39.1571 100.157 37.6569 101.657C36.1566 103.157 34.1217 104 32 104C29.8783 104 27.8434 103.157 26.3431 101.657C24.8429 100.157 24 98.1217 24 96V56C24 51.7565 25.6857 47.6869 28.6863 44.6863C31.6869 41.6857 35.7565 40 40 40H216C220.243 40 224.313 41.6857 227.314 44.6863C230.314 47.6869 232 51.7565 232 56ZM32 184C29.8783 184 27.8434 184.843 26.3431 186.343C24.8429 187.843 24 189.878 24 192C24 194.122 24.8429 196.157 26.3431 197.657C27.8434 199.157 29.8783 200 32 200C34.1217 200 36.1566 200.843 37.6569 202.343C39.1571 203.843 40 205.878 40 208C40 210.122 40.8429 212.157 42.3431 213.657C43.8434 215.157 45.8783 216 48 216C50.1217 216 52.1566 215.157 53.6569 213.657C55.1571 212.157 56 210.122 56 208C55.9737 201.643 53.4367 195.554 48.9415 191.059C44.4463 186.563 38.3571 184.026 32 184ZM32 152C29.8783 152 27.8434 152.843 26.3431 154.343C24.8429 155.843 24 157.878 24 160C24 162.122 24.8429 164.157 26.3431 165.657C27.8434 167.157 29.8783 168 32 168C42.6087 168 52.7828 172.214 60.2843 179.716C67.7857 187.217 72 197.391 72 208C72 210.122 72.8429 212.157 74.3431 213.657C75.8434 215.157 77.8783 216 80 216C82.1217 216 84.1566 215.157 85.6569 213.657C87.1571 212.157 88 210.122 88 208C88 193.148 82.1 178.904 71.598 168.402C61.0959 157.9 46.8521 152 32 152ZM32 120C29.8783 120 27.8434 120.843 26.3431 122.343C24.8429 123.843 24 125.878 24 128C24 130.122 24.8429 132.157 26.3431 133.657C27.8434 135.157 29.8783 136 32 136C51.0875 136.026 69.3856 143.621 82.8825 157.118C96.3794 170.614 103.974 188.913 104 208C104 210.122 104.843 212.157 106.343 213.657C107.843 215.157 109.878 216 112 216C114.122 216 116.157 215.157 117.657 213.657C119.157 212.157 120 210.122 120 208C119.974 184.669 110.694 162.301 94.1962 145.804C77.6987 129.306 55.3309 120.026 32 120Z" fill="black"/>
</svg>
